<?xml version="1.0" encoding="UTF-8" standalone="no"?>
<svg width="117px" height="77px" viewBox="0 0 117 77" version="1.1" xmlns="http://www.w3.org/2000/svg" xmlns:xlink="http://www.w3.org/1999/xlink">
    <!-- Generator: Sketch 3.8.3 (29802) - http://www.bohemiancoding.com/sketch -->
    <title>Calque_1</title>
    <desc>Created with Sketch.</desc>
    <defs></defs>
    <g id="Welcome" stroke="none" stroke-width="1" fill="none" fill-rule="evenodd">
        <g id="Desktop-HD" transform="translate(-173.000000, -95.000000)">
            <g id="LOGO" transform="translate(173.000000, 95.000000)">
                <g id="Calque_1">
                    <text id="Tribes" fill="#4C4F51" font-family="AvenirNext-Bold, Avenir Next" font-size="22.8398962" font-weight="bold">
                        <tspan x="50.9110131" y="54.326">Tribes</tspan>
                    </text>
                    <path d="M24.6897541,57.722 L24.4698197,25.876 L58.1652541,5.253 C58.1652541,5.253 43.9773689,-5.696 23.6048852,4.372 C9.66654098,20.218 1.87472951,28.388 1.87472951,28.388 L0.0719016393,76.318 L24.6897541,57.722 L24.6897541,57.722 Z" id="Shape" fill="#4A90E2"></path>
                    <polygon id="Shape" fill="#4C4F51" points="41.103418 69.619 46.521418 64.681 46.8449754 50.335 41.619418 46.227 36.1813279 50.331 35.9698525 65.082"></polygon>
                    <path d="M27.5425574,54.616 L27.4304754,27.12 L60.3529672,7.456 C60.3529672,7.456 70.5608852,10.963 74.9384262,28.778 L47.1272951,33.952 L42.466377,33.979 L41.756877,41.755 L27.5425574,54.616 L27.5425574,54.616 Z" id="Shape" fill="#D9DADB"></path>
                    <path d="M38.949541,31.14 C38.1607377,33.078 39.0817131,35.294 41.005082,36.089 C42.9295082,36.884 45.1277951,35.956 45.9165984,34.018 C46.7054016,32.08 45.7844262,29.864 43.8610574,29.069 C41.9376885,28.274 39.7383443,29.201 38.949541,31.14 L38.949541,31.14 Z" id="Shape" fill="#4C4F51"></path>
                    <path d="M0.419778689,65.634 L25.3559016,47.123" id="Shape" stroke="#FFFFFF"></path>
                    <path d="M0.857532787,51.971 L24.9181475,35.664" id="Shape" stroke="#FFFFFF"></path>
                </g>
            </g>
        </g>
    </g>
</svg>