<?xml version="1.0" encoding="UTF-8" standalone="no"?>
<svg width="67px" height="40px" viewBox="0 0 67 40" version="1.1" xmlns="http://www.w3.org/2000/svg" xmlns:xlink="http://www.w3.org/1999/xlink">
    <!-- Generator: Sketch 3.8.3 (29802) - http://www.bohemiancoding.com/sketch -->
    <title>logo</title>
    <desc>Created with Sketch.</desc>
    <defs></defs>
    <g id="Welcome" stroke="none" stroke-width="1" fill="none" fill-rule="evenodd">
        <g id="Desktop-HD" transform="translate(-16.000000, -20.000000)">
            <g id="logo" transform="translate(16.000000, 20.000000)">
                <text id="Tribes" font-family="AvenirNext-Bold, Avenir Next" font-size="14.338702" font-weight="bold" letter-spacing="-0.126035601" fill="#4C4F51">
                    <tspan x="26.0893265" y="31.0364842">Tribes</tspan>
                </text>
                <g id="Group-14" transform="translate(0.000000, 0.430811)">
                    <path d="M12.653951,29.9210245 L12.5408082,13.5187313 L29.8321347,2.8969099 C29.8321347,2.8969099 22.5519306,-2.74259146 12.0976653,2.44267159 C4.94474694,10.6053407 0.946359184,14.8126635 0.946359184,14.8126635 L0.0216857143,39.4988468 L12.653951,29.9210245 Z" id="Fill-2" fill="#4A90E2"></path>
                    <polygon id="Fill-4" fill="#4C4F51" points="21.076898 36.0489512 23.8569796 33.5053529 24.0233265 26.116319 21.3415714 24.0010803 18.5507143 26.1149569 18.4422857 33.711701"></polygon>
                    <path d="M14.1181408,28.3213838 L14.0608959,14.1596363 L30.9548755,4.03155224 C30.9548755,4.03155224 36.1931204,5.83760919 38.4398143,15.0136316 L24.1683245,17.6784509 L21.7761612,17.6927522 L21.4124878,21.6978129 L14.1181408,28.3213838 Z" id="Fill-6" fill="#D9DADB"></path>
                    <path d="M19.9717347,16.2301321 C19.5669796,17.228503 20.0390816,18.3698874 21.0263878,18.7791786 C22.0143673,19.1877887 23.1424286,18.7103959 23.5471837,17.712025 C23.9519388,16.7136542 23.4798367,15.5722698 22.4925306,15.1636596 C21.504551,14.7543684 20.3764898,15.2317613 19.9717347,16.2301321" id="Fill-8" fill="#4C4F51"></path>
                    <path d="M0.19975102,33.9965704 L12.9956694,24.4623331" id="Stroke-10" stroke="#FFFFFF"></path>
                    <path d="M0.424218367,26.9593499 L12.7709327,18.5603678" id="Stroke-12" stroke="#FFFFFF"></path>
                </g>
            </g>
        </g>
    </g>
</svg>