<svg width="67" height="40" viewBox="0 0 67 40" xmlns="http://www.w3.org/2000/svg"><title>logo</title><g fill="none" fill-rule="evenodd"><text font-family="AvenirNext-Bold, Avenir Next" font-size="14.339" font-weight="bold" letter-spacing="-.126"><tspan x="26.089" y="31.036" fill="#4C4F51">Tr</tspan> <tspan x="38.556" y="31.036" fill="#F26455">i</tspan> <tspan x="42.674" y="31.036" fill="#4C4F51">bes</tspan></text><path d="M12.654 30.352l-.113-16.402L29.832 3.328s-7.28-5.64-17.734-.455C4.945 11.036.946 15.243.946 15.243L.022 39.93l12.632-9.578z" fill="#4A90E2"/><path fill="#4C4F51" d="M21.077 36.48l2.78-2.544.166-7.389-2.681-2.115-2.791 2.114-.109 7.597z"/><path d="M14.118 28.752l-.057-14.162L30.955 4.462s5.238 1.806 7.485 10.982L24.168 18.11l-2.392.015-.364 4.005-7.294 6.623z" fill="#D9DADB"/><path d="M21.026 19.21a1.926 1.926 0 0 0 2.521-1.067 1.96 1.96 0 0 0-1.054-2.549 1.925 1.925 0 0 0-2.521 1.067 1.962 1.962 0 0 0 1.054 2.549z" fill="#4C4F51"/><path d="M.2 34.427l12.796-9.534M.424 27.39l12.347-8.399" stroke="#FFF"/></g></svg>